/* XPM */
static char *closeA_xpm[] = {
"36 54 12 1",
" 	c None",
"1	c #192A3D",
"2	c #2D4858",
"3	c #A43030",
"4	c #8E2929",
"5	c #BC3737",
"6	c #FFFFFF",
"7	c #37393C",
"8	c #12171D",
"9	c #273748",
"A	c #29333D",
"B	c #C63B3B",
"111111111111111111111111111111111111",
"111111111111111111111111111111111111",
"234444444444444444444444444444444432",
"234444444444444444444444444444444432",
"234444444444444444444444444444444432",
"234444444444444444444444444444444432",
"234444444444446644444664444444444432",
"234444444444446664446664444444444432",
"234444444444444666466644444444444432",
"234444444444444466666444444444444432",
"234444444444444446664444444444444432",
"234444444444444466666444444444444432",
"234444444444444666466644444444444432",
"234444444444446664446664444444444432",
"234444444444446644444664444444444432",
"234444444444444444444444444444444432",
"234444444444444444444444444444444432",
"234444444444444444444444444444444432",
"234444444444444444444444444444444432",
"234444444444444444444444444444444432",
"234444444444444444444444444444444432",
"111111111111111111111111111111111111",
"111111111111111111111111111111111111",
"111111111111111111111111111111111111",
"111111111111111111111111111111111111",
"111111111111111111111111111111111111",
"111111111111111111111111111111111111",
"111111111111111111111111111111111111",
"111111111111111111111111111111111111",
"789999999999999999999999999999999987",
"7AB444444444444444444444444444444432",
"7AB444444444444444444444444444444432",
"7AB444444444444444444444444444444432",
"7AB444444444444444444444444444444432",
"7AB444444444444644444644444444444432",
"7AB444444444446664446664444444444432",
"7AB444444444444666466644444444444432",
"7AB444444444444466666444444444444432",
"7AB444444444444446664444444444444432",
"7AB444444444444466666444444444444432",
"7AB444444444444666466644444444444432",
"7AB444444444446664446664444444444432",
"7AB444444444444644444644444444444432",
"7AB444444444444444444444444444444432",
"7AB444444444444444444444444444444432",
"7AB444444444444444444444444444444432",
"7AB444444444444444444444444444444432",
"7AB444444444444444444444444444444432",
"111111111111111111111111111111111111",
"111111111111111111111111111111111111",
"111111111111111111111111111111111111",
"111111111111111111111111111111111111",
"111111111111111111111111111111111111",
"111111111111111111111111111111111111"
};
