/* XPM */
static char * maximizeA_xpm[] = {
"24 54 69 1",
" 	c #192A3D",
".	c #E6E5E5",
"+	c #96989A",
"@	c #808286",
"#	c #838489",
"$	c #797C81",
"%	c #77797E",
"&	c #75787D",
"*	c #74777C",
"=	c #87898D",
"-	c #76797E",
";	c #696C73",
">	c #5A5F67",
",	c #5E636A",
"'	c #525861",
")	c #5F646B",
"!	c #5A5E66",
"~	c #6D7076",
"{	c #84868A",
"]	c #808287",
"^	c #5D6169",
"/	c #343D4B",
"(	c #1F2E3F",
"_	c #1D2D3F",
":	c #474E58",
"<	c #73767C",
"[	c #7B7D82",
"}	c #61656C",
"|	c #243142",
"1	c #3E4651",
"2	c #818287",
"3	c #77797F",
"4	c #5B5F67",
"5	c #414853",
"6	c #39414E",
"7	c #4E545C",
"8	c #515660",
"9	c #353F4B",
"0	c #575C64",
"a	c #63676D",
"b	c #85878C",
"c	c #585D65",
"d	c #7F8286",
"e	c #575C65",
"f	c #88898D",
"g	c #6C6F75",
"h	c #51555F",
"i	c #888A8E",
"j	c #97989B",
"k	c #6A6D73",
"l	c #73757B",
"m	c #7C7E83",
"n	c #565B63",
"o	c #4E545D",
"p	c #5B6067",
"q	c #494F59",
"r	c #404753",
"s	c #DCDCDC",
"t	c #3E4652",
"u	c #3B434F",
"v	c #474D57",
"w	c #3C4450",
"x	c #37404D",
"y	c #313B49",
"z	c #E1E0E1",
"A	c #E5E4E5",
"B	c #555A62",
"C	c #3F4752",
"D	c #86888C",
"                        ",
"                        ",
"                        ",
"                        ",
"                        ",
"                        ",
"                        ",
"      ............      ",
"      ............      ",
"      ............      ",
"      ............      ",
"      .+@#$%&&***.      ",
"      .=-;>,')!~{.      ",
"      .]^/(   _:<.      ",
"      .[}|     12.      ",
"      .34567890ab.      ",
"      .&cdefgh-ij.      ",
"      ............      ",
"      ............      ",
"                        ",
"                        ",
"                        ",
"                        ",
"                        ",
"                        ",
"                        ",
"                        ",
"                        ",
"                        ",
"                        ",
"                        ",
"                        ",
"                        ",
"                        ",
"      ............      ",
"      ............      ",
"      ............      ",
"      ............      ",
"      .*kllm***nn.      ",
"      .on000opoqr.      ",
"      stu5vwr5uxy.      ",
"      znt      rn.      ",
"      ABC      }D.      ",
"      .konnnnnnqk.      ",
"      ............      ",
"      ............      ",
"                        ",
"                        ",
"                        ",
"                        ",
"                        ",
"                        ",
"                        ",
"                        "};
