/* XPM */
static char * minimizeA_xpm[] = {
"24 54 5 1",
" 	c #192A3D",
".	c #FFFFFF",
"+	c #1C2A3B",
"@	c #1C2A3A",
"#	c #1F2A37",
"                        ",
"                        ",
"                        ",
"                        ",
"                        ",
"                        ",
"                        ",
"                        ",
"                        ",
"                        ",
"                        ",
"                        ",
"                        ",
"                        ",
"                        ",
"      ...........       ",
"     +...........+      ",
"      ...........       ",
"     +...........       ",
"      ...........       ",
"                        ",
"                        ",
"                        ",
"                        ",
"                        ",
"                        ",
"                        ",
"                        ",
"                        ",
"                        ",
"                        ",
"                        ",
"                        ",
"                        ",
"                        ",
"                        ",
"                        ",
"                        ",
"                        ",
"                        ",
"                        ",
"    @#...........       ",
"     ............       ",
"     ............+      ",
"     ............       ",
"     ............       ",
"     ............       ",
"                        ",
"                        ",
"                        ",
"                        ",
"                        ",
"                        ",
"                        "};
