/* XPM */
static char * restoreA_xpm[] = {
"24 54 201 2",
"  	c #192A3D",
". 	c #999A97",
"+ 	c #E3E3E5",
"@ 	c #A8A8A6",
"# 	c #1E2B38",
"$ 	c #C5C5C5",
"% 	c #1C2A3B",
"& 	c #23292D",
"* 	c #535450",
"= 	c #6E6E6B",
"- 	c #6A6B67",
"; 	c #696A66",
"> 	c #70716E",
", 	c #747471",
"' 	c #ACACAA",
") 	c #9B9C99",
"! 	c #BCBCBA",
"~ 	c #B8B8B7",
"{ 	c #B2B2B0",
"] 	c #AEAEAC",
"^ 	c #AEAFAD",
"/ 	c #B6B6B4",
"( 	c #7A7A77",
"_ 	c #1F201A",
": 	c #7B7C78",
"< 	c #D9D9D8",
"[ 	c #B1B1AF",
"} 	c #22231E",
"| 	c #81827F",
"1 	c #DADAD9",
"2 	c #B7B8B6",
"3 	c #8F908D",
"4 	c #939491",
"5 	c #8C8D8A",
"6 	c #D2D2D1",
"7 	c #B4B4B2",
"8 	c #1E1F19",
"9 	c #777875",
"0 	c #E1E1E1",
"a 	c #363838",
"b 	c #40454C",
"c 	c #242E3B",
"d 	c #2B333A",
"e 	c #9D9D9B",
"f 	c #B4B5B3",
"g 	c #51514D",
"h 	c #E0E1E0",
"i 	c #767774",
"j 	c #27313E",
"k 	c #293341",
"l 	c #27313D",
"m 	c #25313F",
"n 	c #A3A4A1",
"o 	c #B3B3B1",
"p 	c #5A5A56",
"q 	c #878885",
"r 	c #6F706C",
"s 	c #232C35",
"t 	c #232E3E",
"u 	c #3A424B",
"v 	c #23241E",
"w 	c #9E9E9C",
"x 	c #BBBBB9",
"y 	c #202933",
"z 	c #E2E2E2",
"A 	c #868683",
"B 	c #8B8B88",
"C 	c #828380",
"D 	c #BABAB8",
"E 	c #1E2A38",
"F 	c #A1A19F",
"G 	c #CFCFCE",
"H 	c #D0D0CF",
"I 	c #878784",
"J 	c #18293B",
"K 	c #172638",
"L 	c #19293C",
"M 	c #19293A",
"N 	c #192430",
"O 	c #182635",
"P 	c #192535",
"Q 	c #1A2533",
"R 	c #152230",
"S 	c #1D2734",
"T 	c #1A2837",
"U 	c #182432",
"V 	c #222D3A",
"W 	c #192636",
"X 	c #182331",
"Y 	c #18222E",
"Z 	c #262D38",
"` 	c #222A36",
" .	c #16202E",
"..	c #24282D",
"+.	c #192029",
"@.	c #0E1927",
"#.	c #2E343B",
"$.	c #172536",
"%.	c #1A242F",
"&.	c #767676",
"*.	c #CCCCCC",
"=.	c #C1C1C2",
"-.	c #C7C7C7",
";.	c #9D9D9C",
">.	c #182737",
",.	c #121F2D",
"'.	c #131D2A",
").	c #4C4E50",
"!.	c #AEAEAE",
"~.	c #CECECD",
"{.	c #172332",
"].	c #181E26",
"^.	c #0E1924",
"/.	c #111B27",
"(.	c #1E1F1F",
"_.	c #1F1F1F",
":.	c #424242",
"<.	c #3B3B3B",
"[.	c #525251",
"}.	c #767772",
"|.	c #636361",
"1.	c #8D8D8E",
"2.	c #D6D6D5",
"3.	c #151B24",
"4.	c #797979",
"5.	c #A5A5A5",
"6.	c #A2A2A2",
"7.	c #9B9B9B",
"8.	c #969696",
"9.	c #959595",
"0.	c #A9A9A9",
"a.	c #7F7F7C",
"b.	c #050602",
"c.	c #4D4D4D",
"d.	c #DDDDDC",
"e.	c #1B2837",
"f.	c #212730",
"g.	c #CDCDCD",
"h.	c #B3B4B2",
"i.	c #0A0A07",
"j.	c #555555",
"k.	c #DCDCDB",
"l.	c #1C2837",
"m.	c #141A21",
"n.	c #CBCBCB",
"o.	c #B9BAB8",
"p.	c #969693",
"q.	c #797A78",
"r.	c #BFBFBF",
"s.	c #BBBCB9",
"t.	c #060703",
"u.	c #484848",
"v.	c #DDDEDC",
"w.	c #192839",
"x.	c #1F2A39",
"y.	c #1F242D",
"z.	c #D2D2D3",
"A.	c #262721",
"B.	c #373A3E",
"C.	c #16212E",
"D.	c #1E1E1D",
"E.	c #7A7A7A",
"F.	c #AAABAA",
"G.	c #C5C5C6",
"H.	c #DBDCDB",
"I.	c #19293B",
"J.	c #192638",
"K.	c #0D1824",
"L.	c #D1D1D2",
"M.	c #182637",
"N.	c #1A2029",
"O.	c #191E25",
"P.	c #828283",
"Q.	c #A6A6A5",
"R.	c #C1C2C0",
"S.	c #192739",
"T.	c #09121C",
"U.	c #D4D4D4",
"V.	c #5D5E5C",
"W.	c #0C0C09",
"X.	c #161C22",
"Y.	c #1C2229",
"Z.	c #1F2225",
"`.	c #7B7A7B",
" +	c #C1C1BF",
".+	c #080E16",
"++	c #D6D6D6",
"@+	c #979797",
"#+	c #5A5A5A",
"$+	c #616161",
"%+	c #606061",
"&+	c #585859",
"*+	c #BFBEBF",
"=+	c #BCBDBB",
"-+	c #182739",
";+	c #111820",
">+	c #969795",
",+	c #D4D4D2",
"'+	c #D3D3D2",
")+	c #D4D5D3",
"!+	c #868784",
"                                                ",
"                                                ",
"                                                ",
"                                                ",
"                                                ",
"                                                ",
"                                                ",
"                  . + + + + + + @               ",
"                # $ + + + + + + +               ",
"              % & * = - ; > , ' +               ",
"            ) ! ~ { ] ^ / ( _ : +               ",
"            < + + + + + + [ } | +               ",
"            1 2 3 4 4 5 6 7 8 9 +               ",
"            0 = a b c d e f g + + %             ",
"            h i j k l m n o p ! q               ",
"            0 r s t u v w x y %                 ",
"            z 7 A B B C 6 D E                   ",
"            F G G G G H H I                     ",
"              %         %                       ",
"                                                ",
"                                                ",
"                                                ",
"                                                ",
"                                                ",
"                                                ",
"                                                ",
"                                                ",
"                                                ",
"                                                ",
"                                                ",
"                                                ",
"                  J K L                         ",
"              M N O P Q R S T U V               ",
"              W X Y Z `  ...+.@.#.              ",
"              $.%.&.*.=.=.=.=.-.;.              ",
"          >.,.'.).!.+ + + + + + ~.%             ",
"        {.].^./.(._.:.<.[.}.|.1.2.              ",
"        {.3.4.5.6.7.8.9.0.a.b.c.d.              ",
"        e.f.g.+ + + + + + h.i.j.k.              ",
"      M l.m.n.o.3 4 p.q.r.s.t.u.v.              ",
"      w.x.y.z.r A.B.C.D.E.F.  G.H.%             ",
"      I.J.K.L.:   M.N.O.P.Q.  R.q               ",
"        S.T.U.V.W.X.Y.Z.`. +E %                 ",
"        I..+++@+#+$+%+&+*+=+%                   ",
"        -+;+>+,+,+'+'+)+6 !+                    ",
"              %         %                       ",
"                                                ",
"                                                ",
"                                                ",
"                                                ",
"                                                ",
"                                                ",
"                                                ",
"                                                "};
