/* XPM */
static char * start_xpm[] = {
"24 24 2 1",
" 	c None",
".	c #7D9628",
"                        ",
" ........      ........ ",
" .       ..  ..       . ",
" .        .  .        . ",
" .         ..         . ",
" .         ..         . ",
" .         ..         . ",
" .         ..         . ",
" .         ..         . ",
"  .        ..        .  ",
"  ..       ..       ..  ",
"    ................    ",
"    ................    ",
"  ..       ..       ..  ",
"  .        ..        .  ",
" .         ..         . ",
" .         ..         . ",
" .         ..         . ",
" .         ..         . ",
" .         ..         . ",
" .        .  .        . ",
" .       ..  ..       . ",
" ........      ........ ",
"                        "};
